<svg xmlns="http://www.w3.org/2000/svg" shape-rendering="geometricPrecision" text-rendering="geometricPrecision" image-rendering="optimizeQuality" fill-rule="evenodd" clip-rule="evenodd" viewBox="0 0 511.998 511.998"><path fill-rule="nonzero" d="M255.999 0c70.684 0 134.695 28.658 181.018 74.981 46.324 46.324 74.981 110.334 74.981 181.018 0 70.691-28.657 134.695-74.981 181.018-46.323 46.324-110.327 74.981-181.018 74.981s-134.694-28.657-181.018-74.981C28.658 390.694 0 326.69 0 255.999c0-70.684 28.658-134.694 74.981-181.018C121.305 28.658 185.308 0 255.999 0zm-74.995 203.995c-29.412-16.955-43.962 6.609-27.542 23.789l84.234 95.914c15.311 15.318 21.289 15.318 36.607 0l84.234-95.914c16.303-17.26 2.086-40.686-27.55-23.789l-74.988 44.548-74.995-44.548zM410.99 101.009c-39.657-39.657-94.473-64.2-154.991-64.2-60.525 0-115.333 24.543-154.99 64.2-39.657 39.657-64.2 94.472-64.2 154.99 0 60.526 24.543 115.334 64.2 154.991 39.657 39.657 94.465 64.199 154.99 64.199 60.526 0 115.334-24.542 154.991-64.199 39.657-39.657 64.199-94.465 64.199-154.991 0-60.518-24.542-115.333-64.199-154.99z"/></svg>